<svg width="50" height="50" viewBox="0 0 50 50" fill="none" xmlns="http://www.w3.org/2000/svg">
<path d="M47.9168 36.4583C47.9168 33.4194 46.7096 30.5049 44.5608 28.3561C42.4119 26.2072 39.4974 25 36.4585 25C33.4196 25 30.5051 26.2072 28.3562 28.3561C26.2074 30.5049 25.0002 33.4194 25.0002 36.4583C25.0002 39.4973 26.2074 42.4118 28.3562 44.5606C30.5051 46.7095 33.4196 47.9167 36.4585 47.9167C39.4974 47.9167 42.4119 46.7095 44.5608 44.5606C46.7096 42.4118 47.9168 39.4973 47.9168 36.4583ZM34.6877 30.5125L34.8335 30.3938C35.0337 30.2554 35.2761 30.1915 35.5185 30.2132C35.7609 30.2349 35.9881 30.3408 36.1606 30.5125L36.2814 30.6583C36.4201 30.859 36.4839 31.1019 36.4618 31.3448C36.4397 31.5877 36.3331 31.8152 36.1606 31.9875L32.7314 35.4167H42.7106L42.896 35.4333C43.1358 35.4772 43.3527 35.6038 43.5087 35.7911C43.6648 35.9784 43.7502 36.2145 43.7502 36.4583L43.7335 36.6458C43.6896 36.8857 43.563 37.1025 43.3757 37.2586C43.1884 37.4147 42.9523 37.5001 42.7085 37.5H32.7314L36.1606 40.9292L36.2814 41.075C36.43 41.2889 36.493 41.5507 36.4582 41.8087C36.4233 42.0668 36.293 42.3024 36.093 42.4692C35.8931 42.636 35.6378 42.7218 35.3777 42.7098C35.1176 42.6978 34.8714 42.5887 34.6877 42.4042L29.446 37.1604L29.3418 37.0229L29.271 36.8958L29.2085 36.7292L29.1793 36.55L29.1835 36.3208L29.2231 36.1438L29.271 36.0208L29.3627 35.8604L29.446 35.7563L34.6877 30.5125ZM14.5835 14.5833V10.4167C14.5835 9.21017 14.9328 8.02946 15.589 7.01707C16.2453 6.00468 17.1806 5.20388 18.282 4.71134C19.3834 4.2188 20.6038 4.05557 21.7959 4.24136C22.988 4.42714 24.1009 4.954 25.0002 5.75834C25.8994 4.954 27.0123 4.42714 28.2044 4.24136C29.3965 4.05557 30.6169 4.2188 31.7183 4.71134C32.8197 5.20388 33.755 6.00468 34.4113 7.01707C35.0676 8.02946 35.4168 9.21017 35.4168 10.4167V14.5833H38.5418C39.3706 14.5833 40.1655 14.9126 40.7515 15.4986C41.3376 16.0847 41.6668 16.8795 41.6668 17.7083V23.9542C40.6645 23.5359 39.6152 23.2407 38.5418 23.075V17.7083H30.2085V24.4417C29.0655 25.0381 28.0133 25.7943 27.0835 26.6875V17.7083H11.4585V37.5C11.4585 38.184 11.5932 38.8612 11.855 39.4931C12.1167 40.1251 12.5003 40.6992 12.984 41.1829C13.4676 41.6665 14.0418 42.0501 14.6737 42.3119C15.3056 42.5736 15.9829 42.7083 16.6668 42.7083H24.4418C25.0383 43.8513 25.7945 44.9036 26.6877 45.8333H16.6668C14.4567 45.8333 12.3371 44.9554 10.7743 43.3926C9.21147 41.8298 8.3335 39.7101 8.3335 37.5V17.7083C8.3335 16.8795 8.66274 16.0847 9.24879 15.4986C9.83484 14.9126 10.6297 14.5833 11.4585 14.5833H14.5835ZM20.8335 7.29167C20.0047 7.29167 19.2098 7.62091 18.6238 8.20696C18.0377 8.79301 17.7085 9.58787 17.7085 10.4167V14.5833H23.9585V10.4167C23.9585 9.58787 23.6293 8.79301 23.0432 8.20696C22.4572 7.62091 21.6623 7.29167 20.8335 7.29167ZM32.2918 14.5833V10.4167C32.2919 9.77341 32.0934 9.1458 31.7236 8.61951C31.3537 8.09322 30.8304 7.6939 30.2252 7.47605C29.6199 7.25819 28.9622 7.23243 28.3418 7.40226C27.7213 7.5721 27.1684 7.92926 26.7585 8.42501C26.9689 9.05001 27.0835 9.72084 27.0835 10.4167V14.5833H32.2918Z" fill="#F93E04"/>
</svg>
