<svg width="101" height="70" viewBox="0 0 101 70" fill="none" xmlns="http://www.w3.org/2000/svg">
<g clip-path="url(#clip0_44_2262)">
<path d="M22.853 50.4584C35.0358 50.4584 44.9118 40.6646 44.9118 28.5834C44.9118 16.5021 35.0358 6.70837 22.853 6.70837C10.6703 6.70837 0.794189 16.5021 0.794189 28.5834C0.794189 40.6646 10.6703 50.4584 22.853 50.4584Z" fill="white"/>
<path d="M22.8529 7.00002C34.8529 7.00002 44.6176 16.6834 44.6176 28.5834C44.6176 40.4834 34.8529 50.1667 22.8529 50.1667C10.8529 50.1667 1.08824 40.4834 1.08824 28.5834C1.08824 16.6834 10.8529 7.00002 22.8529 7.00002ZM22.8529 6.41669C10.5 6.41669 0.5 16.3334 0.5 28.5834C0.5 40.8334 10.5 50.75 22.8529 50.75C35.2059 50.75 45.2059 40.8334 45.2059 28.5834C45.2059 16.3334 35.2059 6.41669 22.8529 6.41669Z" fill="black"/>
<path d="M22.5588 50.4583V69.7083" stroke="black" stroke-miterlimit="10"/>
<path d="M29.0294 65.0417L22.5588 69.7084" stroke="black" stroke-miterlimit="10"/>
<path d="M22.5589 69.7083L14.9119 65.625" stroke="black" stroke-miterlimit="10"/>
<path d="M67.559 51.0417C61.4413 51.0417 55.559 48.475 51.3825 44.0417C47.3825 39.7834 45.2648 34.1834 45.5001 28.35C45.7354 22.5167 48.206 17.0917 52.559 13.125C56.6766 9.33335 61.9707 7.29169 67.559 7.29169C73.6766 7.29169 79.559 9.85835 83.7354 14.2917C92.0295 23.1584 91.5001 36.9834 82.559 45.2084C78.5001 48.9417 73.1472 51.0417 67.559 51.0417Z" fill="white"/>
<path d="M67.5588 7V7.58333C73.6177 7.58333 79.3824 10.0917 83.5 14.4667C87.4412 18.6667 89.5 24.2083 89.3235 29.925C89.0883 35.7 86.6177 41.0083 82.3824 44.9167C78.3236 48.65 73.0883 50.6917 67.5588 50.6917C61.5 50.6917 55.6765 48.1833 51.6177 43.8083C43.4412 35.0583 43.9706 21.4083 52.7941 13.3C56.853 9.56667 62.0883 7.525 67.6177 7.525L67.5588 7ZM67.5588 7C62.0883 7 56.6765 8.98333 52.3824 12.8917C43.3235 21.2333 42.7941 35.2333 51.2059 44.2167C55.6177 48.9417 61.6177 51.3333 67.6177 51.3333C73.0883 51.3333 78.5 49.35 82.7941 45.4417C91.853 37.1 92.3824 23.1 83.9706 14.1167C79.5588 9.39166 73.5588 7 67.5588 7Z" fill="black"/>
<path d="M83.9119 14.525L98.1472 1.39996" stroke="black" stroke-miterlimit="10"/>
<path d="M90.3235 -0.116638L98.147 1.40003" stroke="black" stroke-miterlimit="10"/>
<path d="M98.147 1.39996L100.323 9.74163" stroke="black" stroke-miterlimit="10"/>
<path d="M44.0295 7.58333C56.0295 7.58333 65.7942 17.2667 65.7942 29.1667C65.7942 41.0667 56.0295 50.75 44.0295 50.75C32.0295 50.75 22.2647 41.0667 22.2647 29.1667C22.2647 17.2667 32.0295 7.58333 44.0295 7.58333ZM44.0295 7C31.6765 7 21.6765 16.9167 21.6765 29.1667C21.6765 41.4167 31.6765 51.3333 44.0295 51.3333C56.3824 51.3333 66.3824 41.4167 66.3824 29.1667C66.3824 16.9167 56.3824 7 44.0295 7Z" fill="black"/>
</g>
<defs>
<clipPath id="clip0_44_2262">
<rect width="100" height="70" fill="white" transform="translate(0.5)"/>
</clipPath>
</defs>
</svg>
