<svg width="70" height="70" viewBox="0 0 70 70" fill="none" xmlns="http://www.w3.org/2000/svg">
<g clip-path="url(#clip0_44_2258)">
<path d="M26.5738 5.83187L19.8735 15.7959C19.7116 16.0367 19.652 16.3319 19.7078 16.6166C19.7636 16.9013 19.9302 17.1522 20.171 17.3141C20.4117 17.4759 20.7069 17.5355 20.9916 17.4797C21.2763 17.4239 21.5272 17.2573 21.6891 17.0166L28.4288 6.99125C30.2225 3.89156 32.5588 2.1875 35 2.1875C37.4413 2.1875 39.7775 3.89156 41.5691 6.98688L53.631 27.9869L45.056 26.2719C44.9151 26.2437 44.77 26.2436 44.629 26.2715C44.4881 26.2994 44.354 26.3548 44.2345 26.4346C43.993 26.5956 43.8255 26.8459 43.7686 27.1305C43.7118 27.415 43.7703 27.7105 43.9313 27.952C44.0923 28.1934 44.3426 28.361 44.6272 28.4178L55.5647 30.6053C55.8037 30.6484 56.0502 30.6099 56.2647 30.4959C56.2844 30.4872 56.3063 30.4916 56.326 30.4806C56.3478 30.4675 56.361 30.4456 56.3828 30.4303C56.4547 30.3819 56.5201 30.3245 56.5775 30.2597C56.6125 30.2225 56.6475 30.1897 56.676 30.1481C56.7195 30.0793 56.7554 30.006 56.7831 29.9294C56.8028 29.8791 56.8291 29.8331 56.84 29.7806C56.8422 29.7675 56.851 29.7587 56.8531 29.7456L59.0406 18.8081C59.0751 18.6649 59.0803 18.5162 59.0559 18.371C59.0315 18.2257 58.978 18.0869 58.8986 17.9628C58.8192 17.8388 58.7156 17.732 58.594 17.649C58.4723 17.5659 58.3351 17.5083 58.1907 17.4796C58.0462 17.4508 57.8975 17.4515 57.7533 17.4817C57.6091 17.5119 57.4725 17.5708 57.3517 17.6551C57.2309 17.7393 57.1283 17.8471 57.0502 17.9719C56.972 18.0967 56.9199 18.2361 56.8969 18.3816L55.2803 26.4644L43.4656 5.89313C41.2606 2.09344 38.255 0 35 0C31.745 0 28.7394 2.09344 26.5738 5.83187ZM21.875 62.3853C21.875 62.0952 21.7598 61.817 21.5547 61.6119C21.3496 61.4068 21.0714 61.2916 20.7813 61.2916H10.9397C7.55565 61.285 4.84971 59.9594 3.51971 57.6516C2.10221 55.195 2.34065 51.9553 4.17596 48.7637L16.2335 27.6675L19.7663 36.5028C19.8197 36.6362 19.8989 36.7579 19.9993 36.8607C20.0997 36.9635 20.2194 37.0456 20.3516 37.1021C20.4837 37.1587 20.6257 37.1887 20.7694 37.1904C20.9132 37.1921 21.0558 37.1655 21.1892 37.112C21.3227 37.0586 21.4443 36.9794 21.5471 36.879C21.6499 36.7786 21.732 36.6589 21.7886 36.5267C21.8451 36.3946 21.8751 36.2526 21.8768 36.1089C21.8785 35.9651 21.8519 35.8225 21.7985 35.6891L17.4235 24.7516C17.4016 24.6947 17.3622 24.6531 17.3316 24.6028C17.3031 24.5569 17.2835 24.5109 17.2485 24.4672C17.174 24.3789 17.0862 24.3029 16.9881 24.2419C16.9728 24.2309 16.9641 24.2156 16.9488 24.2069L16.9422 24.2047C16.8195 24.1354 16.6841 24.0916 16.5441 24.0756C16.52 24.0734 16.4981 24.08 16.4741 24.0778C16.38 24.0712 16.2881 24.0647 16.1919 24.0866L5.2544 26.2741C4.96983 26.3309 4.7195 26.4985 4.55848 26.7399C4.39746 26.9813 4.33895 27.2768 4.3958 27.5614C4.45266 27.846 4.62023 28.0963 4.86165 28.2573C5.10308 28.4183 5.39858 28.4769 5.68315 28.42L14.2625 26.705L2.27502 47.6787C0.0415832 51.5616 -0.194667 55.5975 1.62315 58.7497C3.35565 61.7488 6.74846 63.4747 10.9353 63.4834H20.7791C21.0698 63.4823 21.3482 63.3661 21.5535 63.1604C21.7589 62.9546 21.8744 62.676 21.875 62.3853ZM68.39 58.7256C70.1903 55.6063 69.9475 51.5987 67.7753 47.8319L63.3456 37.8394C63.2279 37.5742 63.0096 37.3668 62.7388 37.2626C62.4681 37.1584 62.167 37.166 61.9019 37.2838C61.6368 37.4015 61.4293 37.6198 61.3251 37.8905C61.2209 38.1613 61.2285 38.4624 61.3463 38.7275L65.8285 48.8206C67.6528 51.9969 67.8978 55.2081 66.4978 57.6319C65.1744 59.9266 62.4641 61.2434 59.0625 61.25L36.5094 61.2872L41.241 56.5556C41.4402 56.3493 41.5504 56.0731 41.5479 55.7863C41.5455 55.4995 41.4304 55.2252 41.2276 55.0224C41.0248 54.8196 40.7505 54.7046 40.4637 54.7021C40.177 54.6996 39.9007 54.8098 39.6944 55.0091L33.1319 61.5716C33.0284 61.6758 32.947 61.7999 32.8925 61.9363C32.838 62.0727 32.8115 62.2188 32.8147 62.3656L32.8103 62.3875C32.8103 62.7419 32.9919 63.0437 33.2566 63.2428L39.6944 69.6806C39.9002 69.8853 40.1786 70.0002 40.4688 70.0002C40.759 70.0002 41.0374 69.8853 41.2431 69.6806C41.4482 69.4755 41.5634 69.1974 41.5634 68.9073C41.5634 68.6173 41.4482 68.3392 41.2431 68.1341L36.5838 63.4747L59.0647 63.4375C63.2647 63.4287 66.6641 61.7116 68.39 58.7256Z" fill="black"/>
</g>
<defs>
<clipPath id="clip0_44_2258">
<rect width="70" height="70" fill="white"/>
</clipPath>
</defs>
</svg>
