<svg width="38" height="38" viewBox="0 0 38 38" fill="none" xmlns="http://www.w3.org/2000/svg">
<path d="M0 9.5C0 8.24022 0.500445 7.03204 1.39124 6.14124C2.28204 5.25044 3.49022 4.75 4.75 4.75H33.25C34.5098 4.75 35.718 5.25044 36.6088 6.14124C37.4996 7.03204 38 8.24022 38 9.5V28.5C38 29.7598 37.4996 30.968 36.6088 31.8588C35.718 32.7496 34.5098 33.25 33.25 33.25H4.75C3.49022 33.25 2.28204 32.7496 1.39124 31.8588C0.500445 30.968 0 29.7598 0 28.5V9.5ZM4.75 7.125C4.12011 7.125 3.51602 7.37522 3.07062 7.82062C2.62522 8.26602 2.375 8.87011 2.375 9.5V11.875H35.625V9.5C35.625 8.87011 35.3748 8.26602 34.9294 7.82062C34.484 7.37522 33.8799 7.125 33.25 7.125H4.75ZM35.625 16.625H2.375V28.5C2.375 29.1299 2.62522 29.734 3.07062 30.1794C3.51602 30.6248 4.12011 30.875 4.75 30.875H33.25C33.8799 30.875 34.484 30.6248 34.9294 30.1794C35.3748 29.734 35.625 29.1299 35.625 28.5V16.625Z" fill="#2C302B"/>
<path d="M4.75 23.75C4.75 23.1201 5.00022 22.516 5.44562 22.0706C5.89102 21.6252 6.49511 21.375 7.125 21.375H9.5C10.1299 21.375 10.734 21.6252 11.1794 22.0706C11.6248 22.516 11.875 23.1201 11.875 23.75V26.125C11.875 26.7549 11.6248 27.359 11.1794 27.8044C10.734 28.2498 10.1299 28.5 9.5 28.5H7.125C6.49511 28.5 5.89102 28.2498 5.44562 27.8044C5.00022 27.359 4.75 26.7549 4.75 26.125V23.75Z" fill="#2C302B"/>
</svg>
