<svg width="33" height="32" viewBox="0 0 33 32" fill="none" xmlns="http://www.w3.org/2000/svg">
<path d="M24.9947 8V7C24.9947 5.14348 24.1512 3.36301 22.6499 2.05025C21.1486 0.737498 19.1124 0 16.9893 0C14.8661 0 12.8299 0.737498 11.3286 2.05025C9.82732 3.36301 8.9839 5.14348 8.9839 7V8H0.978516V28C0.978516 29.0609 1.46047 30.0783 2.31836 30.8284C3.17624 31.5786 4.33978 32 5.55302 32H28.4255C29.6388 32 30.8023 31.5786 31.6602 30.8284C32.5181 30.0783 33 29.0609 33 28V8H24.9947ZM16.9893 2C18.5058 2 19.9602 2.52678 21.0326 3.46447C22.105 4.40215 22.7074 5.67392 22.7074 7V8H11.2711V7C11.2711 5.67392 11.8736 4.40215 12.9459 3.46447C14.0183 2.52678 15.4727 2 16.9893 2ZM16.9893 15.986C20.7953 12.564 30.3125 18.552 16.9893 26.25C3.66604 18.55 13.1833 12.564 16.9893 15.986Z" fill="#2C302B"/>
</svg>
