<svg width="30" height="30" viewBox="0 0 30 30" fill="none" xmlns="http://www.w3.org/2000/svg">
<g clip-path="url(#clip0_44_2421)">
<path d="M15.0001 -0.0319824C6.71166 -0.0319824 -0.0327148 6.71052 -0.0327148 14.9999C-0.0327148 23.2893 6.71166 30.0318 15.0001 30.0318C23.2885 30.0318 30.0329 23.2893 30.0329 14.9999C30.0329 6.71052 23.2885 -0.0319824 15.0001 -0.0319824ZM15.0001 29.0305C7.26385 29.0305 0.97041 22.7361 0.97041 14.9999C0.97041 7.26364 7.26385 0.969268 15.0001 0.969268C22.7363 0.969268 29.0298 7.26364 29.0298 14.9999C29.0298 22.7361 22.7363 29.0305 15.0001 29.0305Z" fill="#205F11"/>
<path d="M18.2813 6.56229H15.78C12.5944 6.53042 12.1875 8.50198 12.1875 10.6357V12.1873H10.7813C10.7177 12.1788 10.653 12.1851 10.5923 12.2056C10.5316 12.2262 10.4764 12.2605 10.431 12.3058C10.3857 12.3512 10.3514 12.4063 10.3309 12.4671C10.3103 12.5278 10.304 12.5925 10.3125 12.656V15.4685C10.304 15.5321 10.3103 15.5968 10.3309 15.6575C10.3514 15.7182 10.3857 15.7734 10.431 15.8188C10.4764 15.8641 10.5316 15.8984 10.5923 15.919C10.653 15.9395 10.7177 15.9458 10.7813 15.9373H12.1875V22.9685C12.1797 23.0322 12.1865 23.0968 12.2075 23.1575C12.2285 23.2181 12.2631 23.2731 12.3086 23.3183C12.3541 23.3636 12.4093 23.3978 12.47 23.4184C12.5308 23.439 12.5954 23.4455 12.6591 23.4373H15.5231C15.7997 23.4692 16.0238 23.2451 15.9356 22.9685L15.9375 15.9373H18.2813C18.3448 15.9458 18.4095 15.9395 18.4702 15.919C18.531 15.8984 18.5862 15.8641 18.6315 15.8188C18.6768 15.7734 18.7111 15.7182 18.7317 15.6575C18.7522 15.5968 18.7585 15.5321 18.75 15.4685V12.656C18.7585 12.5925 18.7522 12.5278 18.7317 12.4671C18.7111 12.4063 18.6768 12.3512 18.6315 12.3058C18.5862 12.2605 18.531 12.2262 18.4702 12.2056C18.4095 12.1851 18.3448 12.1788 18.2813 12.1873H15.9347L15.9375 10.781C16.0284 10.182 16.0284 10.2795 16.5844 10.3123H18.2616C18.3919 10.2832 18.5306 10.2992 18.6281 10.2045C18.7256 10.1098 18.7819 9.98042 18.7491 9.84354V7.03104C18.7577 6.96753 18.7516 6.90289 18.7312 6.84214C18.7107 6.78138 18.6765 6.72617 18.6313 6.68081C18.586 6.63544 18.5308 6.60114 18.4701 6.58058C18.4094 6.56003 18.3448 6.55377 18.2813 6.56229ZM17.7797 9.32229L16.6041 9.27729C15.1481 9.27729 15.0263 10.0676 15.0263 10.8767L15.0225 12.6542C15.0224 12.72 15.0352 12.7852 15.0603 12.846C15.0855 12.9069 15.1223 12.9622 15.1688 13.0088C15.2153 13.0554 15.2705 13.0923 15.3313 13.1175C15.3921 13.1428 15.4573 13.1557 15.5231 13.1557H17.8125V14.967H15.525C15.3922 14.967 15.2647 15.0197 15.1707 15.1136C15.0766 15.2074 15.0237 15.3347 15.0234 15.4676L15.0225 22.4998H13.125V15.4685C13.125 15.192 12.9366 14.9679 12.6591 14.9679H11.25V13.1567H12.6591C12.7249 13.1568 12.79 13.1439 12.8508 13.1188C12.9116 13.0937 12.9669 13.0569 13.0134 13.0104C13.1072 12.9157 13.1241 12.7882 13.1241 12.6551V10.6348C13.1241 8.53292 13.5488 7.53167 15.7791 7.53167H17.7788V9.32229H17.7797Z" fill="#205F11"/>
</g>
<defs>
<clipPath id="clip0_44_2421">
<rect width="30" height="30" fill="white"/>
</clipPath>
</defs>
</svg>
