<svg width="30" height="30" viewBox="0 0 30 30" fill="none" xmlns="http://www.w3.org/2000/svg">
<g clip-path="url(#clip0_44_2425)">
<path d="M21.4711 0.968262H8.52911C4.35311 0.968262 0.968506 4.35346 0.968506 8.52886V21.4709C0.968506 25.6469 4.35371 29.0315 8.52971 29.0315H21.4705C25.6465 29.0315 29.0317 25.6463 29.0317 21.4703V8.52886C29.0317 4.35286 25.6465 0.968262 21.4705 0.968262H21.4711Z" fill="white"/>
<path d="M21.4711 0.968262H8.52911C4.35311 0.968262 0.968506 4.35346 0.968506 8.52886V21.4709C0.968506 25.6469 4.35371 29.0315 8.52971 29.0315H21.4705C25.6465 29.0315 29.0317 25.6463 29.0317 21.4703V8.52886C29.0317 4.35286 25.6465 0.968262 21.4705 0.968262H21.4711Z" stroke="#205F11" stroke-miterlimit="10"/>
<path d="M15.0001 21.7741C18.7413 21.7741 21.7741 18.7413 21.7741 15.0001C21.7741 11.2589 18.7413 8.22607 15.0001 8.22607C11.2589 8.22607 8.22607 11.2589 8.22607 15.0001C8.22607 18.7413 11.2589 21.7741 15.0001 21.7741Z" stroke="#205F11" stroke-miterlimit="10"/>
<path d="M23.2253 8.22604C24.0269 8.22604 24.6767 7.57623 24.6767 6.77464C24.6767 5.97306 24.0269 5.32324 23.2253 5.32324C22.4237 5.32324 21.7739 5.97306 21.7739 6.77464C21.7739 7.57623 22.4237 8.22604 23.2253 8.22604Z" fill="#205F11"/>
</g>
<defs>
<clipPath id="clip0_44_2425">
<rect width="30" height="30" fill="white"/>
</clipPath>
</defs>
</svg>
