<svg width="30" height="30" viewBox="0 0 30 30" fill="none" xmlns="http://www.w3.org/2000/svg">
<g clip-path="url(#clip0_44_2418)">
<path d="M10.6666 28.82C10.6666 28.82 14.2399 13.94 14.5932 13.0066C11.1799 13.3333 12.2732 21.3333 16.1399 22.2066C19.4132 22.9733 23.0399 19.18 22.9866 14.9733C22.9332 10.7666 20.4599 8.66663 17.3332 7.79329C14.2066 6.91996 9.23323 7.99996 7.91323 12.3733C7.44026 13.7013 7.37809 15.141 7.73481 16.5048C8.09153 17.8687 8.85061 19.0936 9.91323 20.02" stroke="#205F11" stroke-linecap="round" stroke-linejoin="round"/>
<path d="M15.3333 1C12.4985 1 9.72727 1.84064 7.37017 3.4156C5.01306 4.99057 3.17592 7.22913 2.09107 9.8482C1.00621 12.4673 0.722363 15.3492 1.27542 18.1296C1.82847 20.91 3.19359 23.464 5.19814 25.4685C7.2027 27.4731 9.75665 28.8382 12.537 29.3913C15.3174 29.9443 18.1994 29.6605 20.8185 28.5756C23.4375 27.4908 25.6761 25.6536 27.2511 23.2965C28.826 20.9394 29.6667 18.1682 29.6667 15.3333C29.6649 11.5324 28.1542 7.88773 25.4666 5.20009C22.779 2.51245 19.1342 1.00177 15.3333 1V1Z" stroke="#205F11" stroke-linecap="round" stroke-linejoin="round"/>
</g>
<defs>
<clipPath id="clip0_44_2418">
<rect width="30" height="30" fill="white"/>
</clipPath>
</defs>
</svg>
