<svg width="30" height="30" viewBox="0 0 30 30" fill="none" xmlns="http://www.w3.org/2000/svg">
<g clip-path="url(#clip0_44_2416)">
<path d="M26.5458 8.55388V9.36469C26.5458 17.5296 20.3512 26.8863 9.0161 26.8863C5.66984 26.8935 2.39464 25.9211 -0.405518 24.089C0.0807876 24.155 0.571327 24.1849 1.06205 24.1782C3.83584 24.1858 6.53163 23.2606 8.7161 21.5512C7.42746 21.5322 6.17759 21.1075 5.14412 20.3375C4.11066 19.5675 3.34618 18.4913 2.95935 17.262C3.34319 17.3434 3.73454 17.3841 4.12691 17.3836C4.67483 17.3837 5.22027 17.3101 5.74854 17.1647C4.35279 16.8864 3.09712 16.1318 2.19637 15.0299C1.29562 13.928 0.805796 12.5473 0.810699 11.1241V11.0431C1.66465 11.5201 2.62202 11.7817 3.59989 11.8052C2.29821 10.9487 1.37274 9.62737 1.01257 8.11134C0.652395 6.59531 0.884713 4.99896 1.66205 3.64847C3.21091 5.55347 5.14334 7.11117 7.33371 8.22033C9.52408 9.32948 11.9234 9.96526 14.3756 10.0863C14.2542 9.62611 14.1969 9.15136 14.2053 8.6755C14.1596 7.41786 14.5027 6.1767 15.1878 5.12103C15.8728 4.06536 16.8666 3.24648 18.0338 2.77589C19.2009 2.3053 20.4848 2.20587 21.7105 2.49113C22.9362 2.7764 24.0442 3.4325 24.8837 4.37009C26.2635 4.09164 27.5871 3.58466 28.7999 2.87009C28.34 4.32255 27.3616 5.55494 26.0512 6.33226C27.2752 6.1636 28.4686 5.81952 29.5945 5.31064C28.7785 6.56386 27.7462 7.66202 26.5458 8.55388V8.55388Z" stroke="#205F11" stroke-linecap="round" stroke-linejoin="round"/>
</g>
<defs>
<clipPath id="clip0_44_2416">
<rect width="30" height="30" fill="white"/>
</clipPath>
</defs>
</svg>
